Pat Garrett and Billy the Kid (1973)

Director: Sam Peckinpah

Pat Garrett and Billy the Kid is an oasis of calm after the mayhem of Peckinpah's earlier The Wild Bunch, although it still contains enough spitting and shooting to count as a classic Peckinpah western. The story of how Pat Garrett turned from outlaw to criminal and hunted his former partner Billy the Kid, is an archetypal western legend, and the film's structure and dialogue presupposes a knowledge of the story.

Watching Pat Garrett feels like looking at a fascinating old photograph in which you can read the whole lives of the people captured. Peckinpah's use of freeze-frames to break up action scenes creates a feeling of melancholy for times irretrievably lost, as do the long dialogue scenes between Pat (James Coburn) and Billy (Kris Kristofferson). When Billy asks Pat how it feels to be wearing a badge, and he says, "It feels like times have changed", we see that they both know that there is no going back. The world no longer has a place for the kind of men they used to be, and they can either accept this and change or be destroyed.

Bob Dylan puts in a strange appearance as a silent, squinting vagrant; more important to the film is his thumping, scratching musical score which hangs in the air like dust throughout. There is also a rather unpleasant chicken-shooting sequence, although animal-rights activists should bear in mind that Sam "never shot any animal, man, woman or child that he didn't eat himself." Well worth seeing for its performances, unique atmosphere and integrity. 

Media Info:
General
Complete name                    : J:\Seeding\Pat Garrett and Billy the Kid (1973)[DVDRip][big_dad_e™]\Pat Garrett and Billy the Kid (1973)[DVDRip][big_dad_e™].AVI
Format                           : AVI
Format/Info                      : Audio Video Interleave
File size                        : 1.47 GiB
Duration                         : 1h 55mn
Overall bit rate                 : 1 826 Kbps

Video
ID                               : 0
Format                           : MPEG-4 Visual
Format profile                   : Simple@L3
Format settings, BVOP            : No
Format settings, QPel            : No
Format settings, GMC             : No warppoints
Format settings, Matrix          : Default (H.263)
Codec ID                         : XVID
Codec ID/Hint                    : XviD
Duration                         : 1h 55mn
Bit rate                         : 1 493 Kbps
Width                            : 708 pixels
Height                           : 362 pixels
Display aspect ratio             : 2.35:1
Frame rate                       : 23.976 fps
Color space                      : YUV
Chroma subsampling               : 4:2:0
Bit depth                        : 8 bits
Scan type                        : Progressive
Bits/(Pixel*Frame)               : 0.243
Stream size                      : 1.20 GiB (82%)
Writing library                  : XviD 1.1.2 (UTC 2006-11-01)

Audio
ID                               : 1
Format                           : MPEG Audio
Format version                   : Version 1
Format profile                   : Layer 3
Mode                             : Joint stereo
Mode extension                   : MS Stereo
Codec ID                         : 55
Codec ID/Hint                    : MP3
Duration                         : 1h 55mn
Bit rate mode                    : Constant
Bit rate                         : 320 Kbps
Channel(s)                       : 2 channels
Sampling rate                    : 48.0 KHz
Stream size                      : 264 MiB (18%)
Alignment                        : Split accross interleaves
Interleave, duration             : 24 ms (0.58 video frame)
Interleave, preload duration     : 287 ms
Writing library                  : LAME3.98

File Scan:
Malwarebytes' Anti-Malware 1.50.1.1100
www.malwarebytes.org

Database version: 5594

Windows 5.1.2600 Service Pack 3
Internet Explorer 8.0.6001.18702

1/25/2011 4:07:06 AM
mbam-log-2011-01-25 (04-07-06).txt

Scan type: Quick scan
Objects scanned: 5
Time elapsed: 18 second(s)

Memory Processes Infected: 0
Memory Modules Infected: 0
Registry Keys Infected: 0
Registry Values Infected: 0
Registry Data Items Infected: 0
Folders Infected: 0
Files Infected: 0

Memory Processes Infected:
(No malicious items detected)

Memory Modules Infected:
(No malicious items detected)

Registry Keys Infected:
(No malicious items detected)

Registry Values Infected:
(No malicious items detected)

Registry Data Items Infected:
(No malicious items detected)

Folders Infected:
(No malicious items detected)

Files Infected:
(No malicious items detected)

When using TPB please read these important notes:
  
01- Anti-malware apps may warn about keygens, patches, cracks, etc., because of 
    their capabilities, (generating codes, etc.). Sometimes they're added to 
    the virus/spyware database and will be detected as malware. If you don't trust
    the keygens, patches, cracks, etc., don't use them. 
    
02- Before running .exe-files, keygens, patches, cracks, etc., always check first 
    if they can be unpacked. Often some third party added a virus to the 
    original file, repacked it and uploaded it again.

03- Letting anti-malware apps send scan results to their companies can cause
    keygens, patches, cracks, etc., to be added to their virus-database.

04- Firewalls which are set to automatically determine connections will allow 
    apps & malware!. Avoid this by manually configuring your firewall.

05- Usually (new) torrents with many downloads and seeders in a brief period is
    suspicious! Torrents with the Skull & Crossbones icon are trusted.

06- Some people use multiple accounts and post fake comments 
    and/or files trying to spread confusion. They seldom seriously
    comment or have any torrents, or a just a few to look passable.

07- Clicking on unknown links can cause malware to be installed on your machine.
  
08- In general often there are more fake and negative comments than reliable and
    positive comments.

09- In some countries uploading/downloading copyright protected material is 
    forbidden, but showing some appreciation to reliable up-loaders is not.

10- Posting fake and negative comments or fake/infected uploads on TPB can result
    in getting banned from TPB!

Requests?  Find me on SuprBay. http://forum.suprbay.org/member.php?action=profile&uid=91870
 

For reporting bad or suspicious torrents:  
http://forum.suprbay.org/forumdisplay.php?fid=29

For more of my torrents: 
https://thepiratebay.org/user/big_dad_e/  (Secured)

All torrents scanned with:
Norton Anti-virus
Malwarebytes' Anti-malware
 
http://www.pirate-party.us/

ALWAYS SEED & THANKS SEEDERS!